<svg xmlns="http://www.w3.org/2000/svg" viewBox="0 28 843 490" width="843" height="490" font-family="Arial, Helvetica, sans-serif" font-size="12">
<rect x="0" y="28" width="843" height="490" fill="#ffffff"/>
<g class="wire reset" data-signal="RST"><path d="M66 160L102 160" fill="none" stroke="#dc2626" stroke-width="1.25" stroke-dasharray="5 3"/></g>
<g class="wire control" data-signal="SHOW"><path d="M66 180L102 180" fill="none" stroke="#2563eb" stroke-width="1.25" stroke-dasharray="5 3"/></g>
<g class="wire control" data-signal="MODE"><path d="M66 200L102 200" fill="none" stroke="#2563eb" stroke-width="1.25" stroke-dasharray="5 3"/></g>
<g class="wire data" data-signal="ACC"><path d="M748 433L784 433" fill="none" stroke="#111827" stroke-width="2"/><text x="752" y="445" font-size="9" fill="#6b7280">6</text></g>
<g class="node component unfolded" data-node-id="acc"><rect x="102" y="52" width="646" height="442" rx="4" fill="#f8fafc" stroke="#94a3b8" stroke-width="1.5"/><path d="M102 74L748 74" fill="none" stroke="#94a3b8"/><text x="110" y="63" text-anchor="start" dominant-baseline="central" font-weight="600" fill="#111827">acc</text></g>
<g class="node port" data-node-id="@RST"><rect x="31" y="151" width="35" height="18" rx="9" fill="#ffffff" stroke="#6b7280"/><text x="48.5" y="160" text-anchor="middle" dominant-baseline="central" font-size="11" fill="#111827">RST</text></g>
<g class="node port" data-node-id="@SHOW"><rect x="24" y="171" width="42" height="18" rx="9" fill="#ffffff" stroke="#6b7280"/><text x="45" y="180" text-anchor="middle" dominant-baseline="central" font-size="11" fill="#111827">SHOW</text></g>
<g class="node port" data-node-id="@MODE"><rect x="24" y="191" width="42" height="18" rx="9" fill="#ffffff" stroke="#6b7280"/><text x="45" y="200" text-anchor="middle" dominant-baseline="central" font-size="11" fill="#111827">MODE</text></g>
<g class="node port" data-node-id="@ACC"><rect x="784" y="424" width="35" height="18" rx="9" fill="#ffffff" stroke="#6b7280"/><text x="801.5" y="433" text-anchor="middle" dominant-baseline="central" font-size="11" fill="#111827">ACC</text></g>
<g class="wire connector data" data-signal="acc/OUT_Q"><path d="M724 433L748 433" fill="none" stroke="#111827" stroke-width="2"/></g>
<g class="wire connector reset" data-signal="acc/RST"><path d="M102 160L133 160" fill="none" stroke="#dc2626" stroke-width="1.25" stroke-dasharray="5 3"/></g>
<g class="wire connector control" data-signal="acc/SHOW"><path d="M102 180L126 180" fill="none" stroke="#2563eb" stroke-width="1.25" stroke-dasharray="5 3"/></g>
<g class="wire connector control" data-signal="acc/MODE"><path d="M102 200L126 200" fill="none" stroke="#2563eb" stroke-width="1.25" stroke-dasharray="5 3"/></g>
<g class="wire reset" data-signal="acc/RST"><path d="M168 160L204 160" fill="none" stroke="#dc2626" stroke-width="1.25" stroke-dasharray="5 3"/></g>
<g class="wire control" data-signal="acc/SHOW"><path d="M168 180L204 180" fill="none" stroke="#2563eb" stroke-width="1.25" stroke-dasharray="5 3"/></g>
<g class="wire control" data-signal="acc/MODE"><path d="M168 200L204 200" fill="none" stroke="#2563eb" stroke-width="1.25" stroke-dasharray="5 3"/></g>
<g class="wire control" data-signal="acc/CNT_RST"><path d="M332 160L382 160M382 160L382 270M229 425L219 425M219 425L219 392M219 270L382 270M219 270L219 392" fill="none" stroke="#2563eb" stroke-width="1.25" stroke-dasharray="5 3"/></g>
<g class="wire control" data-signal="acc/ACC_RST"><path d="M332 180L372 180M372 180L372 320M379 425L369 425M369 425L369 402M372 320L398 320M369 402L398 402M398 320L398 402" fill="none" stroke="#2563eb" stroke-width="1.25" stroke-dasharray="5 3"/></g>
<g class="wire control" data-signal="acc/OUT_RST"><path d="M332 200L362 200M362 200L362 300M539 425L529 425M529 425L529 392M362 300L529 300M529 300L529 392" fill="none" stroke="#2563eb" stroke-width="1.25" stroke-dasharray="5 3"/></g>
<g class="wire control" data-signal="acc/OUT_EN"><path d="M332 220L352 220M352 220L352 290M539 433L519 433M519 433L519 392M352 290L519 290M519 290L519 392" fill="none" stroke="#2563eb" stroke-width="1.25" stroke-dasharray="5 3"/></g>
<g class="wire control" data-signal="acc/ACC_SEL"><path d="M332 240L342 240M342 240L342 280M432 136L422 136M422 136L422 280M342 280L422 280" fill="none" stroke="#2563eb" stroke-width="1.25" stroke-dasharray="5 3"/></g>
<g class="wire data" data-signal="acc/CNT_Q"><path d="M279 442L279 456M279 368L279 382M375 368L375 382M463 368L463 382M279 382L463 382M279 456L336 456M336 382L336 456" fill="none" stroke="#111827" stroke-width="2"/><circle cx="336" cy="382" r="3" fill="#111827"/><circle cx="375" cy="382" r="3" fill="#111827"/><text x="283" y="454" font-size="9" fill="#6b7280">6</text></g>
<g class="wire data" data-signal="acc/CNT_D"><path d="M279 334L279 280M279 416L279 392M248 280L279 280M248 392L279 392M248 280L248 392" fill="none" stroke="#111827" stroke-width="2"/><text x="283" y="330" font-size="9" fill="#6b7280">6</text></g>
<g class="wire data" data-signal="acc/ACC_Q"><path d="M429 442L429 456M359 368L359 392M447 368L447 392M359 392L447 392M365 456L429 456M365 392L365 456" fill="none" stroke="#111827" stroke-width="2"/><circle cx="365" cy="392" r="3" fill="#111827"/><text x="433" y="454" font-size="9" fill="#6b7280">6</text></g>
<g class="wire data" data-signal="acc/ACC_D"><path d="M460 126L460 112M429 416L429 402M589 416L589 402M460 112L495 112M429 402L589 402M495 112L495 402" fill="none" stroke="#111827" stroke-width="2"/><circle cx="495" cy="402" r="3" fill="#111827"/><text x="464" y="122" font-size="9" fill="#6b7280">6</text></g>
<g class="wire data" data-signal="acc/OUT_Q"><path d="M589 442L589 456M689 433L679 433M679 433L679 456M589 456L679 456" fill="none" stroke="#111827" stroke-width="2"/><text x="593" y="454" font-size="9" fill="#6b7280">6</text></g>
<g class="wire data" data-signal="acc/data_path.ADD_OUT"><path d="M367 334L367 310M451 146L451 310M367 310L451 310" fill="none" stroke="#111827" stroke-width="2"/><text x="371" y="330" font-size="9" fill="#6b7280">6</text></g>
<g class="wire data" data-signal="acc/data_path.SUB_OUT"><path d="M455 334L455 270M469 146L469 270M455 270L469 270" fill="none" stroke="#111827" stroke-width="2"/><text x="459" y="330" font-size="9" fill="#6b7280">6</text></g>
<g class="node port" data-node-id="acc/@ACC"><rect x="689" y="424" width="35" height="18" rx="9" fill="#ffffff" stroke="#6b7280"/><text x="706.5" y="433" text-anchor="middle" dominant-baseline="central" font-size="11" fill="#111827">ACC</text></g>
<g class="node reg" data-node-id="acc/CNT_FF"><rect x="229" y="416" width="100" height="26" fill="#ffffff" stroke="#111827" stroke-width="2"/><text x="279" y="429" text-anchor="middle" dominant-baseline="central" fill="#111827">CNT_FF</text></g>
<g class="node reg" data-node-id="acc/ACC_FF"><rect x="379" y="416" width="100" height="26" fill="#ffffff" stroke="#111827" stroke-width="2"/><text x="429" y="429" text-anchor="middle" dominant-baseline="central" fill="#111827">ACC_FF</text></g>
<g class="node reg" data-node-id="acc/OUT_FF"><rect x="539" y="416" width="100" height="26" fill="#ffffff" stroke="#111827" stroke-width="2"/><text x="589" y="429" text-anchor="middle" dominant-baseline="central" fill="#111827">OUT_FF</text></g>
<g class="node op" data-node-id="acc/data_path.u_inc"><rect x="255" y="334" width="48" height="34" fill="#ffffff" stroke="#111827" stroke-width="1.5"/><text x="279" y="351" text-anchor="middle" dominant-baseline="central" fill="#111827">+1</text></g>
<g class="node op" data-node-id="acc/data_path.u_add"><rect x="343" y="334" width="48" height="34" fill="#ffffff" stroke="#111827" stroke-width="1.5"/><text x="367" y="351" text-anchor="middle" dominant-baseline="central" fill="#111827">ADD</text></g>
<g class="node op" data-node-id="acc/data_path.u_sub"><rect x="431" y="334" width="48" height="34" fill="#ffffff" stroke="#111827" stroke-width="1.5"/><text x="455" y="351" text-anchor="middle" dominant-baseline="central" fill="#111827">SUB</text></g>
<g class="node mux" data-node-id="acc/data_path.u_mux"><polygon points="432,146 488,146 478,126 442,126" fill="#f3f4f6" stroke="#111827" stroke-width="1.5"/><text x="451" y="141" text-anchor="middle" font-size="9" fill="#6b7280">0</text><text x="469" y="141" text-anchor="middle" font-size="9" fill="#6b7280">1</text></g>
<g class="node control" data-node-id="acc/control_path"><rect x="204" y="126" width="128" height="130" rx="3" fill="#eef2ff" stroke="#4f46e5" stroke-width="1.5"/><text x="268" y="138" text-anchor="middle" dominant-baseline="central" font-weight="600" fill="#111827">acc_cp</text><text x="209" y="160" text-anchor="start" dominant-baseline="central" font-size="10" fill="#6b7280">RST</text><text x="209" y="180" text-anchor="start" dominant-baseline="central" font-size="10" fill="#6b7280">SHOW</text><text x="209" y="200" text-anchor="start" dominant-baseline="central" font-size="10" fill="#6b7280">MODE</text><text x="327" y="160" text-anchor="end" dominant-baseline="central" font-size="10" fill="#6b7280">CNT_RST</text><text x="327" y="180" text-anchor="end" dominant-baseline="central" font-size="10" fill="#6b7280">ACC_RST</text><text x="327" y="200" text-anchor="end" dominant-baseline="central" font-size="10" fill="#6b7280">OUT_RST</text><text x="327" y="220" text-anchor="end" dominant-baseline="central" font-size="10" fill="#6b7280">OUT_EN</text><text x="327" y="240" text-anchor="end" dominant-baseline="central" font-size="10" fill="#6b7280">ACC_SEL</text></g>
<g class="node port" data-node-id="acc/@RST"><rect x="133" y="151" width="35" height="18" rx="9" fill="#ffffff" stroke="#6b7280"/><text x="150.5" y="160" text-anchor="middle" dominant-baseline="central" font-size="11" fill="#111827">RST</text></g>
<g class="node port" data-node-id="acc/@SHOW"><rect x="126" y="171" width="42" height="18" rx="9" fill="#ffffff" stroke="#6b7280"/><text x="147" y="180" text-anchor="middle" dominant-baseline="central" font-size="11" fill="#111827">SHOW</text></g>
<g class="node port" data-node-id="acc/@MODE"><rect x="126" y="191" width="42" height="18" rx="9" fill="#ffffff" stroke="#6b7280"/><text x="147" y="200" text-anchor="middle" dominant-baseline="central" font-size="11" fill="#111827">MODE</text></g>
</svg>
