<svg xmlns="http://www.w3.org/2000/svg" viewBox="335 14 458 406" width="458" height="406" font-family="Arial, Helvetica, sans-serif" font-size="12">
<rect x="335" y="14" width="458" height="406" fill="#ffffff"/>
<g class="wire data" data-signal="CNT_Q"><path d="M409 348L409 362M409 254L409 298M505 254L505 298M593 254L593 298M409 298L593 298M409 362L466 362M466 298L466 362" fill="none" stroke="#111827" stroke-width="2"/><circle cx="466" cy="298" r="3" fill="#111827"/><circle cx="505" cy="298" r="3" fill="#111827"/><text x="413" y="360" font-size="9" fill="#6b7280">6</text></g>
<g class="wire data" data-signal="CNT_D"><path d="M409 220L409 206M409 322L409 308M378 206L409 206M378 308L409 308M378 206L378 308" fill="none" stroke="#111827" stroke-width="2"/><text x="413" y="216" font-size="9" fill="#6b7280">6</text></g>
<g class="wire data" data-signal="ACC_Q"><path d="M559 348L559 362M489 254L489 308M577 254L577 308M489 308L577 308M495 362L559 362M495 308L495 362" fill="none" stroke="#111827" stroke-width="2"/><circle cx="495" cy="308" r="3" fill="#111827"/><text x="563" y="360" font-size="9" fill="#6b7280">6</text></g>
<g class="wire data" data-signal="ACC_D"><path d="M590 162L590 38M559 322L559 288M719 322L719 288M590 38L625 38M559 288L719 288M625 38L625 288" fill="none" stroke="#111827" stroke-width="2"/><circle cx="625" cy="288" r="3" fill="#111827"/><text x="594" y="158" font-size="9" fill="#6b7280">6</text></g>
<g class="wire data" data-signal="OUT_Q"><path d="M719 348L719 378" fill="none" stroke="#111827" stroke-width="2"/><text x="723" y="360" font-size="9" fill="#6b7280">6</text></g>
<g class="wire data" data-signal="data_path.ADD_OUT"><path d="M497 220L497 206M581 182L581 206M497 206L581 206" fill="none" stroke="#111827" stroke-width="2"/><text x="501" y="216" font-size="9" fill="#6b7280">6</text></g>
<g class="wire data" data-signal="data_path.SUB_OUT"><path d="M585 220L585 196M599 182L599 196M585 196L599 196" fill="none" stroke="#111827" stroke-width="2"/><text x="589" y="216" font-size="9" fill="#6b7280">6</text></g>
<g class="node reg" data-node-id="CNT_FF"><rect x="359" y="322" width="100" height="26" fill="#ffffff" stroke="#111827" stroke-width="2"/><text x="409" y="335" text-anchor="middle" dominant-baseline="central" fill="#111827">CNT_FF</text></g>
<g class="node reg" data-node-id="ACC_FF"><rect x="509" y="322" width="100" height="26" fill="#ffffff" stroke="#111827" stroke-width="2"/><text x="559" y="335" text-anchor="middle" dominant-baseline="central" fill="#111827">ACC_FF</text></g>
<g class="node reg" data-node-id="OUT_FF"><rect x="669" y="322" width="100" height="26" fill="#ffffff" stroke="#111827" stroke-width="2"/><text x="719" y="335" text-anchor="middle" dominant-baseline="central" fill="#111827">OUT_FF</text></g>
<g class="node op" data-node-id="data_path.u_inc"><rect x="385" y="220" width="48" height="34" fill="#ffffff" stroke="#111827" stroke-width="1.5"/><text x="409" y="237" text-anchor="middle" dominant-baseline="central" fill="#111827">+1</text></g>
<g class="node op" data-node-id="data_path.u_add"><rect x="473" y="220" width="48" height="34" fill="#ffffff" stroke="#111827" stroke-width="1.5"/><text x="497" y="237" text-anchor="middle" dominant-baseline="central" fill="#111827">ADD</text></g>
<g class="node op" data-node-id="data_path.u_sub"><rect x="561" y="220" width="48" height="34" fill="#ffffff" stroke="#111827" stroke-width="1.5"/><text x="585" y="237" text-anchor="middle" dominant-baseline="central" fill="#111827">SUB</text></g>
<g class="node mux" data-node-id="data_path.u_mux"><polygon points="562,182 618,182 608,162 572,162" fill="#f3f4f6" stroke="#111827" stroke-width="1.5"/><text x="581" y="177" text-anchor="middle" font-size="9" fill="#6b7280">0</text><text x="599" y="177" text-anchor="middle" font-size="9" fill="#6b7280">1</text></g>
<g class="node port" data-node-id="@ACC"><rect x="701" y="378" width="35" height="18" rx="9" fill="#ffffff" stroke="#6b7280"/><text x="718.5" y="387" text-anchor="middle" dominant-baseline="central" font-size="11" fill="#111827">ACC</text></g>
</svg>
